<mxfile host="app.diagrams.net" agent="Mozilla/5.0 (Windows NT 10.0; Win64; x64) AppleWebKit/537.36 (KHTML, like Gecko) Chrome/129.0.0.0 Safari/537.36" version="24.7.17">
  <diagram name="PÃ¡gina-1" id="b-sZRUC54bsHkVsVPGRe">
    <mxGraphModel grid="1" page="1" gridSize="10" guides="1" tooltips="1" connect="1" arrows="1" fold="1" pageScale="1" pageWidth="827" pageHeight="1169" math="0" shadow="0">
      <root>
        <mxCell id="0" />
        <mxCell id="1" parent="0" />
        <mxCell id="Cqu2y2vWlYIxZw1U-b0p-1" value="&lt;font style=&quot;font-size: 18px;&quot;&gt;Vivero&lt;/font&gt;" style="rounded=0;whiteSpace=wrap;html=1;" vertex="1" parent="1">
          <mxGeometry x="270" y="345" width="200" height="70" as="geometry" />
        </mxCell>
        <mxCell id="Cqu2y2vWlYIxZw1U-b0p-2" value="" style="endArrow=none;html=1;rounded=0;exitX=0;exitY=0.5;exitDx=0;exitDy=0;entryX=1;entryY=0.5;entryDx=0;entryDy=0;" edge="1" parent="1" source="Cqu2y2vWlYIxZw1U-b0p-1" target="Cqu2y2vWlYIxZw1U-b0p-3">
          <mxGeometry width="50" height="50" relative="1" as="geometry">
            <mxPoint x="238.70999999999998" y="511.63" as="sourcePoint" />
            <mxPoint x="199.99665295966196" y="380.00462006285113" as="targetPoint" />
          </mxGeometry>
        </mxCell>
        <mxCell id="2tq7A0gxsJtD3-_1VJJO-26" value="&lt;font style=&quot;font-size: 16px;&quot;&gt;Precio Total Unitario&lt;br&gt;&lt;/font&gt;" style="ellipse;whiteSpace=wrap;html=1;aspect=fixed;dashed=1;" vertex="1" parent="1">
          <mxGeometry x="1940" y="660" width="80" height="80" as="geometry" />
        </mxCell>
        <mxCell id="Cqu2y2vWlYIxZw1U-b0p-3" value="&lt;font style=&quot;font-size: 16px;&quot;&gt;ID&lt;/font&gt;" style="ellipse;whiteSpace=wrap;html=1;aspect=fixed;fillColor=#dae8fc;strokeColor=#6c8ebf;" vertex="1" parent="1">
          <mxGeometry x="110" y="340" width="80" height="80" as="geometry" />
        </mxCell>
        <mxCell id="2tq7A0gxsJtD3-_1VJJO-27" style="rounded=0;orthogonalLoop=1;jettySize=auto;html=1;exitX=0;exitY=0.5;exitDx=0;exitDy=0;entryX=1;entryY=1;entryDx=0;entryDy=0;endArrow=none;endFill=0;" edge="1" parent="1" source="2tq7A0gxsJtD3-_1VJJO-26" target="2tq7A0gxsJtD3-_1VJJO-19">
          <mxGeometry relative="1" as="geometry" />
        </mxCell>
        <mxCell id="Cqu2y2vWlYIxZw1U-b0p-4" value="" style="endArrow=none;html=1;rounded=0;exitX=0.25;exitY=0;exitDx=0;exitDy=0;" edge="1" parent="1" source="Cqu2y2vWlYIxZw1U-b0p-1" target="Cqu2y2vWlYIxZw1U-b0p-5">
          <mxGeometry width="50" height="50" relative="1" as="geometry">
            <mxPoint x="510" y="400" as="sourcePoint" />
            <mxPoint x="310" y="230" as="targetPoint" />
          </mxGeometry>
        </mxCell>
        <mxCell id="Cqu2y2vWlYIxZw1U-b0p-5" value="&lt;font style=&quot;font-size: 16px;&quot;&gt;Latitud&lt;/font&gt;" style="ellipse;whiteSpace=wrap;html=1;aspect=fixed;" vertex="1" parent="1">
          <mxGeometry x="190" y="170" width="80" height="80" as="geometry" />
        </mxCell>
        <mxCell id="Cqu2y2vWlYIxZw1U-b0p-6" value="" style="endArrow=none;html=1;rounded=0;exitX=0.5;exitY=0;exitDx=0;exitDy=0;entryX=0.5;entryY=1;entryDx=0;entryDy=0;" edge="1" parent="1" source="Cqu2y2vWlYIxZw1U-b0p-1" target="Cqu2y2vWlYIxZw1U-b0p-7">
          <mxGeometry width="50" height="50" relative="1" as="geometry">
            <mxPoint x="510" y="400" as="sourcePoint" />
            <mxPoint x="450" y="240" as="targetPoint" />
          </mxGeometry>
        </mxCell>
        <mxCell id="Cqu2y2vWlYIxZw1U-b0p-7" value="&lt;font style=&quot;font-size: 16px;&quot;&gt;Longitud&lt;/font&gt;" style="ellipse;whiteSpace=wrap;html=1;aspect=fixed;" vertex="1" parent="1">
          <mxGeometry x="330" y="160" width="80" height="80" as="geometry" />
        </mxCell>
        <mxCell id="Cqu2y2vWlYIxZw1U-b0p-8" value="" style="endArrow=none;html=1;rounded=0;exitX=1;exitY=0.5;exitDx=0;exitDy=0;" edge="1" parent="1" source="Cqu2y2vWlYIxZw1U-b0p-1" target="Cqu2y2vWlYIxZw1U-b0p-9">
          <mxGeometry width="50" height="50" relative="1" as="geometry">
            <mxPoint x="510" y="390" as="sourcePoint" />
            <mxPoint x="700" y="380" as="targetPoint" />
          </mxGeometry>
        </mxCell>
        <mxCell id="Cqu2y2vWlYIxZw1U-b0p-9" value="&lt;font style=&quot;font-size: 18px;&quot;&gt;Tiene&lt;/font&gt;" style="rhombus;whiteSpace=wrap;html=1;" vertex="1" parent="1">
          <mxGeometry x="660" y="315" width="140" height="130" as="geometry" />
        </mxCell>
        <mxCell id="Cqu2y2vWlYIxZw1U-b0p-10" value="" style="endArrow=none;html=1;rounded=0;exitX=1;exitY=0.5;exitDx=0;exitDy=0;entryX=0;entryY=0.5;entryDx=0;entryDy=0;" edge="1" parent="1" source="Cqu2y2vWlYIxZw1U-b0p-9">
          <mxGeometry width="50" height="50" relative="1" as="geometry">
            <mxPoint x="860" y="379.5" as="sourcePoint" />
            <mxPoint x="1010" y="380" as="targetPoint" />
          </mxGeometry>
        </mxCell>
        <mxCell id="Cqu2y2vWlYIxZw1U-b0p-12" value="" style="endArrow=none;html=1;rounded=0;exitX=0.25;exitY=0;exitDx=0;exitDy=0;" edge="1" parent="1" source="6jOyNxbrhBGqHSmDFOe4-2" target="Cqu2y2vWlYIxZw1U-b0p-13">
          <mxGeometry width="50" height="50" relative="1" as="geometry">
            <mxPoint x="1110" y="350" as="sourcePoint" />
            <mxPoint x="1050" y="230" as="targetPoint" />
          </mxGeometry>
        </mxCell>
        <mxCell id="Cqu2y2vWlYIxZw1U-b0p-13" value="&lt;font style=&quot;font-size: 16px;&quot;&gt;Latitud&lt;/font&gt;" style="ellipse;whiteSpace=wrap;html=1;aspect=fixed;" vertex="1" parent="1">
          <mxGeometry x="990" y="200" width="80" height="80" as="geometry" />
        </mxCell>
        <mxCell id="Cqu2y2vWlYIxZw1U-b0p-14" value="" style="endArrow=none;html=1;rounded=0;exitX=0.75;exitY=0;exitDx=0;exitDy=0;entryX=0.5;entryY=1;entryDx=0;entryDy=0;" edge="1" parent="1" source="6jOyNxbrhBGqHSmDFOe4-2" target="Cqu2y2vWlYIxZw1U-b0p-15">
          <mxGeometry width="50" height="50" relative="1" as="geometry">
            <mxPoint x="1110" y="350" as="sourcePoint" />
            <mxPoint x="1190" y="240" as="targetPoint" />
          </mxGeometry>
        </mxCell>
        <mxCell id="Cqu2y2vWlYIxZw1U-b0p-15" value="&lt;font style=&quot;font-size: 16px;&quot;&gt;Longitud&lt;/font&gt;" style="ellipse;whiteSpace=wrap;html=1;aspect=fixed;" vertex="1" parent="1">
          <mxGeometry x="1130" y="200" width="80" height="80" as="geometry" />
        </mxCell>
        <mxCell id="Cqu2y2vWlYIxZw1U-b0p-16" value="" style="endArrow=none;html=1;rounded=0;exitX=0;exitY=0;exitDx=0;exitDy=0;" edge="1" parent="1" target="Cqu2y2vWlYIxZw1U-b0p-17">
          <mxGeometry width="50" height="50" relative="1" as="geometry">
            <mxPoint x="1010" y="350" as="sourcePoint" />
            <mxPoint x="900" y="260" as="targetPoint" />
          </mxGeometry>
        </mxCell>
        <mxCell id="Cqu2y2vWlYIxZw1U-b0p-17" value="&lt;font style=&quot;font-size: 16px;&quot;&gt;Nombre&lt;/font&gt;" style="ellipse;whiteSpace=wrap;html=1;aspect=fixed;" vertex="1" parent="1">
          <mxGeometry x="840" y="210" width="80" height="80" as="geometry" />
        </mxCell>
        <mxCell id="Cqu2y2vWlYIxZw1U-b0p-18" value="" style="endArrow=none;html=1;rounded=0;exitX=1;exitY=0;exitDx=0;exitDy=0;" edge="1" parent="1" target="Cqu2y2vWlYIxZw1U-b0p-19">
          <mxGeometry width="50" height="50" relative="1" as="geometry">
            <mxPoint x="1210" y="350" as="sourcePoint" />
            <mxPoint x="1340" y="270" as="targetPoint" />
          </mxGeometry>
        </mxCell>
        <mxCell id="Cqu2y2vWlYIxZw1U-b0p-19" value="&lt;font style=&quot;font-size: 16px;&quot;&gt;ID&lt;/font&gt;" style="ellipse;whiteSpace=wrap;html=1;aspect=fixed;fillColor=#dae8fc;strokeColor=#6c8ebf;" vertex="1" parent="1">
          <mxGeometry x="1300" y="220" width="80" height="80" as="geometry" />
        </mxCell>
        <mxCell id="Cqu2y2vWlYIxZw1U-b0p-20" value="" style="endArrow=none;html=1;rounded=0;exitX=0.75;exitY=0;exitDx=0;exitDy=0;" edge="1" parent="1" source="Cqu2y2vWlYIxZw1U-b0p-1" target="Cqu2y2vWlYIxZw1U-b0p-21">
          <mxGeometry width="50" height="50" relative="1" as="geometry">
            <mxPoint x="660" y="390" as="sourcePoint" />
            <mxPoint x="580" y="260" as="targetPoint" />
          </mxGeometry>
        </mxCell>
        <mxCell id="Cqu2y2vWlYIxZw1U-b0p-21" value="&lt;font style=&quot;font-size: 16px;&quot;&gt;Nombre&lt;/font&gt;" style="ellipse;whiteSpace=wrap;html=1;aspect=fixed;" vertex="1" parent="1">
          <mxGeometry x="490" y="170" width="80" height="80" as="geometry" />
        </mxCell>
        <mxCell id="Cqu2y2vWlYIxZw1U-b0p-22" value="&lt;span style=&quot;font-size: 14px;&quot;&gt;(1, 1)&lt;/span&gt;" style="text;html=1;align=center;verticalAlign=middle;resizable=0;points=[];autosize=1;strokeColor=none;fillColor=none;" vertex="1" parent="1">
          <mxGeometry x="470" y="380" width="60" height="30" as="geometry" />
        </mxCell>
        <mxCell id="Cqu2y2vWlYIxZw1U-b0p-23" value="&lt;span style=&quot;font-size: 14px;&quot;&gt;(1, N)&lt;/span&gt;" style="text;html=1;align=center;verticalAlign=middle;resizable=0;points=[];autosize=1;strokeColor=none;fillColor=none;" vertex="1" parent="1">
          <mxGeometry x="950" y="350" width="60" height="30" as="geometry" />
        </mxCell>
        <mxCell id="Cqu2y2vWlYIxZw1U-b0p-24" value="" style="endArrow=none;html=1;rounded=0;exitX=1;exitY=0.5;exitDx=0;exitDy=0;entryX=0;entryY=0.5;entryDx=0;entryDy=0;" edge="1" parent="1" target="Cqu2y2vWlYIxZw1U-b0p-26">
          <mxGeometry width="50" height="50" relative="1" as="geometry">
            <mxPoint x="1210" y="380" as="sourcePoint" />
            <mxPoint x="1410" y="380" as="targetPoint" />
          </mxGeometry>
        </mxCell>
        <mxCell id="Cqu2y2vWlYIxZw1U-b0p-26" value="&lt;font style=&quot;font-size: 18px;&quot;&gt;Dispone&lt;/font&gt;" style="rhombus;whiteSpace=wrap;html=1;" vertex="1" parent="1">
          <mxGeometry x="1410" y="315" width="140" height="130" as="geometry" />
        </mxCell>
        <mxCell id="Cqu2y2vWlYIxZw1U-b0p-28" value="" style="endArrow=none;html=1;rounded=0;exitX=1;exitY=0.5;exitDx=0;exitDy=0;entryX=0;entryY=0.5;entryDx=0;entryDy=0;" edge="1" parent="1" source="Cqu2y2vWlYIxZw1U-b0p-26" target="Cqu2y2vWlYIxZw1U-b0p-29">
          <mxGeometry width="50" height="50" relative="1" as="geometry">
            <mxPoint x="1560" y="379" as="sourcePoint" />
            <mxPoint x="1760" y="379" as="targetPoint" />
          </mxGeometry>
        </mxCell>
        <mxCell id="Cqu2y2vWlYIxZw1U-b0p-29" value="&lt;font style=&quot;font-size: 18px;&quot;&gt;Producto&lt;/font&gt;" style="rounded=0;whiteSpace=wrap;html=1;" vertex="1" parent="1">
          <mxGeometry x="1760" y="350" width="200" height="60" as="geometry" />
        </mxCell>
        <mxCell id="Cqu2y2vWlYIxZw1U-b0p-30" value="" style="endArrow=none;html=1;rounded=0;exitX=0.25;exitY=0;exitDx=0;exitDy=0;" edge="1" parent="1" source="Cqu2y2vWlYIxZw1U-b0p-29" target="Cqu2y2vWlYIxZw1U-b0p-31">
          <mxGeometry width="50" height="50" relative="1" as="geometry">
            <mxPoint x="1690" y="380" as="sourcePoint" />
            <mxPoint x="1680" y="270" as="targetPoint" />
          </mxGeometry>
        </mxCell>
        <mxCell id="Cqu2y2vWlYIxZw1U-b0p-31" value="&lt;font style=&quot;font-size: 16px;&quot;&gt;ID&lt;/font&gt;" style="ellipse;whiteSpace=wrap;html=1;aspect=fixed;fillColor=#dae8fc;strokeColor=#6c8ebf;" vertex="1" parent="1">
          <mxGeometry x="1690" y="250" width="80" height="80" as="geometry" />
        </mxCell>
        <mxCell id="Cqu2y2vWlYIxZw1U-b0p-32" value="" style="endArrow=none;html=1;rounded=0;exitX=0.75;exitY=0;exitDx=0;exitDy=0;" edge="1" parent="1" source="Cqu2y2vWlYIxZw1U-b0p-29" target="Cqu2y2vWlYIxZw1U-b0p-33">
          <mxGeometry width="50" height="50" relative="1" as="geometry">
            <mxPoint x="1690" y="380" as="sourcePoint" />
            <mxPoint x="1800" y="270" as="targetPoint" />
          </mxGeometry>
        </mxCell>
        <mxCell id="Cqu2y2vWlYIxZw1U-b0p-33" value="&lt;font style=&quot;font-size: 16px;&quot;&gt;Nombre&lt;/font&gt;" style="ellipse;whiteSpace=wrap;html=1;aspect=fixed;" vertex="1" parent="1">
          <mxGeometry x="1950" y="250" width="80" height="80" as="geometry" />
        </mxCell>
        <mxCell id="Cqu2y2vWlYIxZw1U-b0p-34" value="" style="endArrow=none;html=1;rounded=0;exitX=0.5;exitY=0;exitDx=0;exitDy=0;" edge="1" parent="1" source="Cqu2y2vWlYIxZw1U-b0p-26" target="Cqu2y2vWlYIxZw1U-b0p-35">
          <mxGeometry width="50" height="50" relative="1" as="geometry">
            <mxPoint x="1340" y="380" as="sourcePoint" />
            <mxPoint x="1480" y="190" as="targetPoint" />
          </mxGeometry>
        </mxCell>
        <mxCell id="Cqu2y2vWlYIxZw1U-b0p-35" value="&lt;font style=&quot;font-size: 16px;&quot;&gt;Cantidad&lt;/font&gt;" style="ellipse;whiteSpace=wrap;html=1;aspect=fixed;" vertex="1" parent="1">
          <mxGeometry x="1440" y="130" width="80" height="80" as="geometry" />
        </mxCell>
        <mxCell id="Cqu2y2vWlYIxZw1U-b0p-36" value="&lt;font style=&quot;font-size: 13px;&quot;&gt;(1, M)&lt;/font&gt;" style="text;html=1;align=center;verticalAlign=middle;resizable=0;points=[];autosize=1;strokeColor=none;fillColor=none;" vertex="1" parent="1">
          <mxGeometry x="1210" y="380" width="60" height="30" as="geometry" />
        </mxCell>
        <mxCell id="Cqu2y2vWlYIxZw1U-b0p-37" value="&lt;font style=&quot;font-size: 14px;&quot;&gt;(1, N)&lt;/font&gt;" style="text;html=1;align=center;verticalAlign=middle;resizable=0;points=[];autosize=1;strokeColor=none;fillColor=none;" vertex="1" parent="1">
          <mxGeometry x="1705" y="380" width="60" height="30" as="geometry" />
        </mxCell>
        <mxCell id="Cqu2y2vWlYIxZw1U-b0p-41" value="&lt;font style=&quot;font-size: 18px;&quot;&gt;Trabaja&lt;/font&gt;" style="rhombus;whiteSpace=wrap;html=1;" vertex="1" parent="1">
          <mxGeometry x="1040" y="590" width="140" height="130" as="geometry" />
        </mxCell>
        <mxCell id="2tq7A0gxsJtD3-_1VJJO-4" style="rounded=0;orthogonalLoop=1;jettySize=auto;html=1;exitX=1;exitY=0.5;exitDx=0;exitDy=0;entryX=0;entryY=0.5;entryDx=0;entryDy=0;endArrow=none;endFill=0;" edge="1" parent="1" source="Cqu2y2vWlYIxZw1U-b0p-48" target="2tq7A0gxsJtD3-_1VJJO-2">
          <mxGeometry relative="1" as="geometry" />
        </mxCell>
        <mxCell id="Cqu2y2vWlYIxZw1U-b0p-48" value="&lt;font style=&quot;font-size: 18px;&quot;&gt;Empleado&lt;/font&gt;" style="rounded=0;whiteSpace=wrap;html=1;" vertex="1" parent="1">
          <mxGeometry x="1010" y="870" width="200" height="60" as="geometry" />
        </mxCell>
        <mxCell id="Cqu2y2vWlYIxZw1U-b0p-49" value="" style="endArrow=none;html=1;rounded=0;exitX=0.5;exitY=0;exitDx=0;exitDy=0;entryX=0.5;entryY=1;entryDx=0;entryDy=0;" edge="1" parent="1" source="Cqu2y2vWlYIxZw1U-b0p-48" target="Cqu2y2vWlYIxZw1U-b0p-41">
          <mxGeometry width="50" height="50" relative="1" as="geometry">
            <mxPoint x="1100" y="750" as="sourcePoint" />
            <mxPoint x="1150" y="700" as="targetPoint" />
          </mxGeometry>
        </mxCell>
        <mxCell id="Cqu2y2vWlYIxZw1U-b0p-50" value="" style="endArrow=none;html=1;rounded=0;exitX=1;exitY=1;exitDx=0;exitDy=0;" edge="1" parent="1" source="Cqu2y2vWlYIxZw1U-b0p-48" target="Cqu2y2vWlYIxZw1U-b0p-51">
          <mxGeometry width="50" height="50" relative="1" as="geometry">
            <mxPoint x="1240" y="940" as="sourcePoint" />
            <mxPoint x="930" y="990" as="targetPoint" />
          </mxGeometry>
        </mxCell>
        <mxCell id="Cqu2y2vWlYIxZw1U-b0p-51" value="&lt;font style=&quot;font-size: 16px;&quot;&gt;ID&lt;/font&gt;" style="ellipse;whiteSpace=wrap;html=1;aspect=fixed;fillColor=#dae8fc;strokeColor=#6c8ebf;" vertex="1" parent="1">
          <mxGeometry x="1270" y="970" width="80" height="80" as="geometry" />
        </mxCell>
        <mxCell id="Cqu2y2vWlYIxZw1U-b0p-52" value="" style="endArrow=none;html=1;rounded=0;exitX=0.75;exitY=1;exitDx=0;exitDy=0;" edge="1" parent="1" source="Cqu2y2vWlYIxZw1U-b0p-48" target="Cqu2y2vWlYIxZw1U-b0p-53">
          <mxGeometry width="50" height="50" relative="1" as="geometry">
            <mxPoint x="1020" y="940" as="sourcePoint" />
            <mxPoint x="880" y="900" as="targetPoint" />
          </mxGeometry>
        </mxCell>
        <mxCell id="Cqu2y2vWlYIxZw1U-b0p-53" value="&lt;font style=&quot;font-size: 16px;&quot;&gt;Nombre&lt;/font&gt;" style="ellipse;whiteSpace=wrap;html=1;aspect=fixed;" vertex="1" parent="1">
          <mxGeometry x="1161" y="1020" width="80" height="80" as="geometry" />
        </mxCell>
        <mxCell id="Cqu2y2vWlYIxZw1U-b0p-54" value="" style="endArrow=none;html=1;rounded=0;exitX=0;exitY=1;exitDx=0;exitDy=0;entryX=1;entryY=0;entryDx=0;entryDy=0;" edge="1" parent="1" source="Cqu2y2vWlYIxZw1U-b0p-48" target="oXYsEidf6VKU98BRxcGU-14">
          <mxGeometry width="50" height="50" relative="1" as="geometry">
            <mxPoint x="1000" y="949.9999999999998" as="sourcePoint" />
            <mxPoint x="932.2706437498568" y="986.365162324048" as="targetPoint" />
          </mxGeometry>
        </mxCell>
        <mxCell id="pxCASzFqiO6Pbht4L9mE-4" style="rounded=0;orthogonalLoop=1;jettySize=auto;html=1;exitX=0;exitY=0;exitDx=0;exitDy=0;entryX=1;entryY=1;entryDx=0;entryDy=0;endArrow=none;endFill=0;" edge="1" parent="1" source="Cqu2y2vWlYIxZw1U-b0p-57" target="Cqu2y2vWlYIxZw1U-b0p-41">
          <mxGeometry relative="1" as="geometry" />
        </mxCell>
        <mxCell id="Cqu2y2vWlYIxZw1U-b0p-57" value="&lt;font style=&quot;font-size: 16px;&quot;&gt;Fecha Inicio&lt;/font&gt;" style="ellipse;whiteSpace=wrap;html=1;aspect=fixed;" vertex="1" parent="1">
          <mxGeometry x="1160" y="700" width="80" height="80" as="geometry" />
        </mxCell>
        <mxCell id="pxCASzFqiO6Pbht4L9mE-3" style="rounded=0;orthogonalLoop=1;jettySize=auto;html=1;exitX=0;exitY=1;exitDx=0;exitDy=0;entryX=1;entryY=0;entryDx=0;entryDy=0;endArrow=none;endFill=0;" edge="1" parent="1" source="Cqu2y2vWlYIxZw1U-b0p-59" target="Cqu2y2vWlYIxZw1U-b0p-41">
          <mxGeometry relative="1" as="geometry" />
        </mxCell>
        <mxCell id="Cqu2y2vWlYIxZw1U-b0p-59" value="&lt;font style=&quot;font-size: 16px;&quot;&gt;Fecha Final&lt;/font&gt;" style="ellipse;whiteSpace=wrap;html=1;aspect=fixed;" vertex="1" parent="1">
          <mxGeometry x="1160" y="530" width="80" height="80" as="geometry" />
        </mxCell>
        <mxCell id="Cqu2y2vWlYIxZw1U-b0p-63" value="&lt;font style=&quot;font-size: 14px;&quot;&gt;(1, N)&lt;/font&gt;" style="text;html=1;align=center;verticalAlign=middle;resizable=0;points=[];autosize=1;strokeColor=none;fillColor=none;" vertex="1" parent="1">
          <mxGeometry x="1050" y="410" width="60" height="30" as="geometry" />
        </mxCell>
        <mxCell id="6jOyNxbrhBGqHSmDFOe4-2" value="&lt;font style=&quot;font-size: 18px;&quot;&gt;Zona&lt;/font&gt;" style="shape=process;whiteSpace=wrap;html=1;backgroundOutline=1;" vertex="1" parent="1">
          <mxGeometry x="1010" y="350" width="200" height="60" as="geometry" />
        </mxCell>
        <mxCell id="6jOyNxbrhBGqHSmDFOe4-3" value="&lt;font style=&quot;font-size: 15px;&quot;&gt;&lt;b&gt;E&lt;/b&gt;&lt;/font&gt;" style="text;html=1;align=center;verticalAlign=middle;whiteSpace=wrap;rounded=0;" vertex="1" parent="1">
          <mxGeometry x="700" y="330" width="60" height="30" as="geometry" />
        </mxCell>
        <mxCell id="6jOyNxbrhBGqHSmDFOe4-4" value="" style="endArrow=none;html=1;rounded=0;exitX=0.5;exitY=1;exitDx=0;exitDy=0;" edge="1" parent="1" source="6jOyNxbrhBGqHSmDFOe4-2">
          <mxGeometry width="50" height="50" relative="1" as="geometry">
            <mxPoint x="1060" y="760" as="sourcePoint" />
            <mxPoint x="1110" y="590" as="targetPoint" />
          </mxGeometry>
        </mxCell>
        <mxCell id="6jOyNxbrhBGqHSmDFOe4-5" value="&lt;span style=&quot;font-size: 14px;&quot;&gt;(1, M)&lt;/span&gt;" style="text;html=1;align=center;verticalAlign=middle;resizable=0;points=[];autosize=1;strokeColor=none;fillColor=none;" vertex="1" parent="1">
          <mxGeometry x="1050" y="840" width="60" height="30" as="geometry" />
        </mxCell>
        <mxCell id="6jOyNxbrhBGqHSmDFOe4-7" value="" style="endArrow=none;html=1;rounded=0;exitX=0.25;exitY=1;exitDx=0;exitDy=0;" edge="1" parent="1" source="Cqu2y2vWlYIxZw1U-b0p-48" target="6jOyNxbrhBGqHSmDFOe4-8">
          <mxGeometry width="50" height="50" relative="1" as="geometry">
            <mxPoint x="1000" y="980" as="sourcePoint" />
            <mxPoint x="830" y="920" as="targetPoint" />
          </mxGeometry>
        </mxCell>
        <mxCell id="6jOyNxbrhBGqHSmDFOe4-8" value="&lt;font style=&quot;font-size: 16px;&quot;&gt;Apellidos&lt;/font&gt;" style="ellipse;whiteSpace=wrap;html=1;aspect=fixed;" vertex="1" parent="1">
          <mxGeometry x="990" y="1019.9999999999998" width="80" height="80" as="geometry" />
        </mxCell>
        <mxCell id="6jOyNxbrhBGqHSmDFOe4-9" value="" style="endArrow=none;html=1;rounded=0;exitX=0.5;exitY=1;exitDx=0;exitDy=0;" edge="1" parent="1" source="6jOyNxbrhBGqHSmDFOe4-8" target="6jOyNxbrhBGqHSmDFOe4-10">
          <mxGeometry width="50" height="50" relative="1" as="geometry">
            <mxPoint x="1040" y="1140" as="sourcePoint" />
            <mxPoint x="640" y="850" as="targetPoint" />
          </mxGeometry>
        </mxCell>
        <mxCell id="6jOyNxbrhBGqHSmDFOe4-10" value="&lt;font style=&quot;font-size: 16px;&quot;&gt;Apellido 1&lt;/font&gt;" style="ellipse;whiteSpace=wrap;html=1;aspect=fixed;" vertex="1" parent="1">
          <mxGeometry x="940" y="1119.9999999999998" width="80" height="80" as="geometry" />
        </mxCell>
        <mxCell id="6jOyNxbrhBGqHSmDFOe4-11" value="" style="endArrow=none;html=1;rounded=0;exitX=0.5;exitY=1;exitDx=0;exitDy=0;" edge="1" parent="1" source="6jOyNxbrhBGqHSmDFOe4-8" target="6jOyNxbrhBGqHSmDFOe4-12">
          <mxGeometry width="50" height="50" relative="1" as="geometry">
            <mxPoint x="1050" y="840" as="sourcePoint" />
            <mxPoint x="670" y="960" as="targetPoint" />
          </mxGeometry>
        </mxCell>
        <mxCell id="6jOyNxbrhBGqHSmDFOe4-12" value="&lt;font style=&quot;font-size: 16px;&quot;&gt;Apellido 2&lt;/font&gt;" style="ellipse;whiteSpace=wrap;html=1;aspect=fixed;" vertex="1" parent="1">
          <mxGeometry x="1040" y="1119.9999999999998" width="80" height="80" as="geometry" />
        </mxCell>
        <mxCell id="pxCASzFqiO6Pbht4L9mE-5" style="rounded=0;orthogonalLoop=1;jettySize=auto;html=1;exitX=1;exitY=0;exitDx=0;exitDy=0;entryX=0;entryY=1;entryDx=0;entryDy=0;endArrow=none;endFill=0;" edge="1" parent="1" source="6jOyNxbrhBGqHSmDFOe4-16" target="Cqu2y2vWlYIxZw1U-b0p-41">
          <mxGeometry relative="1" as="geometry" />
        </mxCell>
        <mxCell id="6jOyNxbrhBGqHSmDFOe4-16" value="&lt;font style=&quot;font-size: 16px;&quot;&gt;Puesto&lt;/font&gt;" style="ellipse;whiteSpace=wrap;html=1;aspect=fixed;" vertex="1" parent="1">
          <mxGeometry x="980" y="699.9999999999998" width="80" height="80" as="geometry" />
        </mxCell>
        <mxCell id="6jOyNxbrhBGqHSmDFOe4-17" value="&lt;font style=&quot;font-size: 18px;&quot;&gt;Cliente Plus&lt;/font&gt;" style="rounded=0;whiteSpace=wrap;html=1;" vertex="1" parent="1">
          <mxGeometry x="2591" y="870" width="200" height="60" as="geometry" />
        </mxCell>
        <mxCell id="6jOyNxbrhBGqHSmDFOe4-18" value="" style="endArrow=none;html=1;rounded=0;exitX=0;exitY=1;exitDx=0;exitDy=0;" edge="1" parent="1" source="6jOyNxbrhBGqHSmDFOe4-17" target="6jOyNxbrhBGqHSmDFOe4-20">
          <mxGeometry width="50" height="50" relative="1" as="geometry">
            <mxPoint x="1891" y="930" as="sourcePoint" />
            <mxPoint x="2521" y="1080" as="targetPoint" />
          </mxGeometry>
        </mxCell>
        <mxCell id="6jOyNxbrhBGqHSmDFOe4-20" value="&lt;font style=&quot;font-size: 16px;&quot;&gt;DNI&lt;/font&gt;" style="ellipse;whiteSpace=wrap;html=1;aspect=fixed;fillColor=#dae8fc;strokeColor=#6c8ebf;" vertex="1" parent="1">
          <mxGeometry x="2481" y="960" width="80" height="80" as="geometry" />
        </mxCell>
        <mxCell id="6jOyNxbrhBGqHSmDFOe4-21" value="" style="endArrow=none;html=1;rounded=0;exitX=0.25;exitY=1;exitDx=0;exitDy=0;" edge="1" parent="1" source="6jOyNxbrhBGqHSmDFOe4-17" target="6jOyNxbrhBGqHSmDFOe4-22">
          <mxGeometry width="50" height="50" relative="1" as="geometry">
            <mxPoint x="1891" y="930" as="sourcePoint" />
            <mxPoint x="2631" y="1060" as="targetPoint" />
          </mxGeometry>
        </mxCell>
        <mxCell id="6jOyNxbrhBGqHSmDFOe4-22" value="&lt;font style=&quot;font-size: 16px;&quot;&gt;Nombre&lt;/font&gt;" style="ellipse;whiteSpace=wrap;html=1;aspect=fixed;" vertex="1" parent="1">
          <mxGeometry x="2591" y="990" width="80" height="80" as="geometry" />
        </mxCell>
        <mxCell id="6jOyNxbrhBGqHSmDFOe4-23" value="&lt;font style=&quot;font-size: 16px;&quot;&gt;Apellidos&lt;/font&gt;" style="ellipse;whiteSpace=wrap;html=1;aspect=fixed;" vertex="1" parent="1">
          <mxGeometry x="2711" y="989.9999999999998" width="80" height="80" as="geometry" />
        </mxCell>
        <mxCell id="6jOyNxbrhBGqHSmDFOe4-24" value="" style="endArrow=none;html=1;rounded=0;exitX=0.5;exitY=1;exitDx=0;exitDy=0;" edge="1" parent="1" source="6jOyNxbrhBGqHSmDFOe4-23" target="6jOyNxbrhBGqHSmDFOe4-25">
          <mxGeometry width="50" height="50" relative="1" as="geometry">
            <mxPoint x="2751" y="1130" as="sourcePoint" />
            <mxPoint x="2351" y="840" as="targetPoint" />
          </mxGeometry>
        </mxCell>
        <mxCell id="6jOyNxbrhBGqHSmDFOe4-25" value="&lt;font style=&quot;font-size: 16px;&quot;&gt;Apellido 1&lt;/font&gt;" style="ellipse;whiteSpace=wrap;html=1;aspect=fixed;" vertex="1" parent="1">
          <mxGeometry x="2660" y="1088.9999999999998" width="80" height="80" as="geometry" />
        </mxCell>
        <mxCell id="6jOyNxbrhBGqHSmDFOe4-26" value="" style="endArrow=none;html=1;rounded=0;exitX=0.5;exitY=1;exitDx=0;exitDy=0;" edge="1" parent="1" source="6jOyNxbrhBGqHSmDFOe4-23" target="6jOyNxbrhBGqHSmDFOe4-27">
          <mxGeometry width="50" height="50" relative="1" as="geometry">
            <mxPoint x="2761" y="830" as="sourcePoint" />
            <mxPoint x="2381" y="950" as="targetPoint" />
          </mxGeometry>
        </mxCell>
        <mxCell id="6jOyNxbrhBGqHSmDFOe4-27" value="&lt;font style=&quot;font-size: 16px;&quot;&gt;Apellido 2&lt;/font&gt;" style="ellipse;whiteSpace=wrap;html=1;aspect=fixed;" vertex="1" parent="1">
          <mxGeometry x="2760" y="1088.9999999999998" width="80" height="80" as="geometry" />
        </mxCell>
        <mxCell id="6jOyNxbrhBGqHSmDFOe4-28" value="" style="endArrow=none;html=1;rounded=0;exitX=0.5;exitY=0;exitDx=0;exitDy=0;entryX=0.75;entryY=1;entryDx=0;entryDy=0;" edge="1" parent="1" source="6jOyNxbrhBGqHSmDFOe4-23" target="6jOyNxbrhBGqHSmDFOe4-17">
          <mxGeometry width="50" height="50" relative="1" as="geometry">
            <mxPoint x="1891" y="1010" as="sourcePoint" />
            <mxPoint x="1941" y="960" as="targetPoint" />
          </mxGeometry>
        </mxCell>
        <mxCell id="2tq7A0gxsJtD3-_1VJJO-6" style="rounded=0;orthogonalLoop=1;jettySize=auto;html=1;exitX=1;exitY=0.5;exitDx=0;exitDy=0;entryX=0;entryY=0.5;entryDx=0;entryDy=0;endArrow=none;endFill=0;" edge="1" parent="1" source="6jOyNxbrhBGqHSmDFOe4-36" target="6jOyNxbrhBGqHSmDFOe4-33">
          <mxGeometry relative="1" as="geometry" />
        </mxCell>
        <mxCell id="6jOyNxbrhBGqHSmDFOe4-36" value="&lt;span style=&quot;font-size: 18px;&quot;&gt;Pedido&lt;/span&gt;" style="rounded=0;whiteSpace=wrap;html=1;" vertex="1" parent="1">
          <mxGeometry x="1760" y="870" width="200" height="60" as="geometry" />
        </mxCell>
        <mxCell id="2tq7A0gxsJtD3-_1VJJO-7" style="edgeStyle=orthogonalEdgeStyle;rounded=0;orthogonalLoop=1;jettySize=auto;html=1;exitX=1;exitY=0.5;exitDx=0;exitDy=0;entryX=0;entryY=0.5;entryDx=0;entryDy=0;endArrow=none;endFill=0;" edge="1" parent="1" source="6jOyNxbrhBGqHSmDFOe4-33" target="6jOyNxbrhBGqHSmDFOe4-17">
          <mxGeometry relative="1" as="geometry" />
        </mxCell>
        <mxCell id="6jOyNxbrhBGqHSmDFOe4-33" value="&lt;span style=&quot;font-size: 18px;&quot;&gt;Realiza&lt;/span&gt;" style="rhombus;whiteSpace=wrap;html=1;" vertex="1" parent="1">
          <mxGeometry x="2200" y="835" width="140" height="130" as="geometry" />
        </mxCell>
        <mxCell id="2tq7A0gxsJtD3-_1VJJO-5" style="edgeStyle=orthogonalEdgeStyle;rounded=0;orthogonalLoop=1;jettySize=auto;html=1;exitX=1;exitY=0.5;exitDx=0;exitDy=0;endArrow=none;endFill=0;" edge="1" parent="1" source="2tq7A0gxsJtD3-_1VJJO-2" target="6jOyNxbrhBGqHSmDFOe4-36">
          <mxGeometry relative="1" as="geometry" />
        </mxCell>
        <mxCell id="2tq7A0gxsJtD3-_1VJJO-2" value="&lt;span style=&quot;font-size: 18px;&quot;&gt;Gestiona&lt;/span&gt;" style="rhombus;whiteSpace=wrap;html=1;" vertex="1" parent="1">
          <mxGeometry x="1440" y="835" width="140" height="130" as="geometry" />
        </mxCell>
        <mxCell id="2tq7A0gxsJtD3-_1VJJO-8" value="&lt;span style=&quot;font-size: 14px;&quot;&gt;(1, N)&lt;/span&gt;" style="text;html=1;align=center;verticalAlign=middle;resizable=0;points=[];autosize=1;strokeColor=none;fillColor=none;" vertex="1" parent="1">
          <mxGeometry x="1700" y="870" width="60" height="30" as="geometry" />
        </mxCell>
        <mxCell id="2tq7A0gxsJtD3-_1VJJO-9" value="&lt;span style=&quot;font-size: 14px;&quot;&gt;(1, 1)&lt;/span&gt;" style="text;html=1;align=center;verticalAlign=middle;resizable=0;points=[];autosize=1;strokeColor=none;fillColor=none;" vertex="1" parent="1">
          <mxGeometry x="1210" y="870" width="60" height="30" as="geometry" />
        </mxCell>
        <mxCell id="m0ytVJ5oXfeXnBo-f1Hs-1" value="&lt;span style=&quot;font-size: 14px;&quot;&gt;(1, N)&lt;/span&gt;" style="text;html=1;align=center;verticalAlign=middle;resizable=0;points=[];autosize=1;strokeColor=none;fillColor=none;" vertex="1" parent="1">
          <mxGeometry x="1960" y="870" width="60" height="30" as="geometry" />
        </mxCell>
        <mxCell id="m0ytVJ5oXfeXnBo-f1Hs-2" value="" style="endArrow=none;html=1;rounded=0;exitX=1;exitY=1;exitDx=0;exitDy=0;entryX=0;entryY=0;entryDx=0;entryDy=0;" edge="1" parent="1" source="6jOyNxbrhBGqHSmDFOe4-17" target="oXYsEidf6VKU98BRxcGU-11">
          <mxGeometry width="50" height="50" relative="1" as="geometry">
            <mxPoint x="2020" y="1040" as="sourcePoint" />
            <mxPoint x="2860" y="980" as="targetPoint" />
          </mxGeometry>
        </mxCell>
        <mxCell id="2tq7A0gxsJtD3-_1VJJO-12" style="rounded=0;orthogonalLoop=1;jettySize=auto;html=1;exitX=0;exitY=1;exitDx=0;exitDy=0;entryX=1;entryY=0;entryDx=0;entryDy=0;endArrow=none;endFill=0;" edge="1" parent="1" source="2tq7A0gxsJtD3-_1VJJO-11" target="6jOyNxbrhBGqHSmDFOe4-17">
          <mxGeometry relative="1" as="geometry" />
        </mxCell>
        <mxCell id="2tq7A0gxsJtD3-_1VJJO-11" value="&lt;font style=&quot;font-size: 15px;&quot;&gt;Fecha de alta &lt;i&gt;TajinastePlus&lt;/i&gt;&lt;/font&gt;" style="ellipse;whiteSpace=wrap;html=1;aspect=fixed;" vertex="1" parent="1">
          <mxGeometry x="2820" y="725" width="115" height="115" as="geometry" />
        </mxCell>
        <mxCell id="pxCASzFqiO6Pbht4L9mE-10" style="rounded=0;orthogonalLoop=1;jettySize=auto;html=1;exitX=1;exitY=1;exitDx=0;exitDy=0;entryX=0;entryY=0;entryDx=0;entryDy=0;endArrow=none;endFill=0;" edge="1" parent="1" source="2tq7A0gxsJtD3-_1VJJO-13" target="6jOyNxbrhBGqHSmDFOe4-17">
          <mxGeometry relative="1" as="geometry" />
        </mxCell>
        <mxCell id="2tq7A0gxsJtD3-_1VJJO-13" value="BonificaciÃ³n" style="ellipse;whiteSpace=wrap;html=1;aspect=fixed;dashed=1;" vertex="1" parent="1">
          <mxGeometry x="2481" y="732.5" width="80" height="80" as="geometry" />
        </mxCell>
        <mxCell id="2tq7A0gxsJtD3-_1VJJO-15" value="&lt;span style=&quot;font-size: 14px;&quot;&gt;(0&lt;/span&gt;&lt;span style=&quot;font-size: 14px;&quot;&gt;, 1)&lt;/span&gt;" style="text;html=1;align=center;verticalAlign=middle;resizable=0;points=[];autosize=1;strokeColor=none;fillColor=none;" vertex="1" parent="1">
          <mxGeometry x="2531" y="870" width="60" height="30" as="geometry" />
        </mxCell>
        <mxCell id="2tq7A0gxsJtD3-_1VJJO-16" value="&lt;font style=&quot;font-size: 14px;&quot;&gt;Fecha RealizaciÃ³n&lt;/font&gt;" style="ellipse;whiteSpace=wrap;html=1;aspect=fixed;" vertex="1" parent="1">
          <mxGeometry x="1755" y="1000" width="80" height="80" as="geometry" />
        </mxCell>
        <mxCell id="2tq7A0gxsJtD3-_1VJJO-29" style="rounded=0;orthogonalLoop=1;jettySize=auto;html=1;exitX=0.5;exitY=0;exitDx=0;exitDy=0;entryX=0.75;entryY=1;entryDx=0;entryDy=0;endArrow=none;endFill=0;" edge="1" parent="1" source="2tq7A0gxsJtD3-_1VJJO-17" target="6jOyNxbrhBGqHSmDFOe4-36">
          <mxGeometry relative="1" as="geometry" />
        </mxCell>
        <mxCell id="2tq7A0gxsJtD3-_1VJJO-17" value="&lt;font style=&quot;font-size: 14px;&quot;&gt;Precio Total&lt;/font&gt;" style="ellipse;whiteSpace=wrap;html=1;aspect=fixed;dashed=1;" vertex="1" parent="1">
          <mxGeometry x="1890" y="1000" width="80" height="80" as="geometry" />
        </mxCell>
        <mxCell id="oXYsEidf6VKU98BRxcGU-6" style="rounded=0;orthogonalLoop=1;jettySize=auto;html=1;exitX=0.5;exitY=0;exitDx=0;exitDy=0;entryX=0.5;entryY=1;entryDx=0;entryDy=0;edgeStyle=orthogonalEdgeStyle;endArrow=none;endFill=0;" edge="1" parent="1" source="2tq7A0gxsJtD3-_1VJJO-19" target="Cqu2y2vWlYIxZw1U-b0p-29">
          <mxGeometry relative="1" as="geometry" />
        </mxCell>
        <mxCell id="oXYsEidf6VKU98BRxcGU-7" style="rounded=0;orthogonalLoop=1;jettySize=auto;html=1;exitX=0.5;exitY=1;exitDx=0;exitDy=0;entryX=0.5;entryY=0;entryDx=0;entryDy=0;endArrow=none;endFill=0;" edge="1" parent="1" source="2tq7A0gxsJtD3-_1VJJO-19" target="6jOyNxbrhBGqHSmDFOe4-36">
          <mxGeometry relative="1" as="geometry" />
        </mxCell>
        <mxCell id="oXYsEidf6VKU98BRxcGU-9" style="rounded=0;orthogonalLoop=1;jettySize=auto;html=1;exitX=1;exitY=0;exitDx=0;exitDy=0;entryX=0;entryY=0.5;entryDx=0;entryDy=0;endArrow=none;endFill=0;" edge="1" parent="1" source="2tq7A0gxsJtD3-_1VJJO-19" target="oXYsEidf6VKU98BRxcGU-8">
          <mxGeometry relative="1" as="geometry" />
        </mxCell>
        <mxCell id="2tq7A0gxsJtD3-_1VJJO-19" value="&lt;font size=&quot;4&quot;&gt;Contiene&lt;/font&gt;" style="rhombus;whiteSpace=wrap;html=1;" vertex="1" parent="1">
          <mxGeometry x="1790" y="570" width="140" height="130" as="geometry" />
        </mxCell>
        <mxCell id="2tq7A0gxsJtD3-_1VJJO-22" style="rounded=0;orthogonalLoop=1;jettySize=auto;html=1;exitX=1;exitY=0;exitDx=0;exitDy=0;entryX=0;entryY=1;entryDx=0;entryDy=0;endArrow=none;endFill=0;" edge="1" parent="1" source="2tq7A0gxsJtD3-_1VJJO-20" target="6jOyNxbrhBGqHSmDFOe4-36">
          <mxGeometry relative="1" as="geometry" />
        </mxCell>
        <mxCell id="2tq7A0gxsJtD3-_1VJJO-20" value="&lt;font style=&quot;font-size: 14px;&quot;&gt;CÃ³digo&lt;/font&gt;" style="ellipse;whiteSpace=wrap;html=1;aspect=fixed;fillColor=#dae8fc;strokeColor=#6c8ebf;" vertex="1" parent="1">
          <mxGeometry x="1654" y="950" width="80" height="80" as="geometry" />
        </mxCell>
        <mxCell id="oXYsEidf6VKU98BRxcGU-8" value="&lt;font style=&quot;font-size: 16px;&quot;&gt;Cantidad&lt;/font&gt;" style="ellipse;whiteSpace=wrap;html=1;aspect=fixed;" vertex="1" parent="1">
          <mxGeometry x="1940" y="540" width="80" height="80" as="geometry" />
        </mxCell>
        <mxCell id="2tq7A0gxsJtD3-_1VJJO-25" value="" style="endArrow=classic;html=1;rounded=0;edgeStyle=orthogonalEdgeStyle;curved=1;" edge="1" parent="1">
          <mxGeometry width="50" height="50" relative="1" as="geometry">
            <mxPoint x="1050" y="800" as="sourcePoint" />
            <mxPoint x="1300" y="960" as="targetPoint" />
            <Array as="points">
              <mxPoint x="1050" y="801" />
              <mxPoint x="1300" y="801" />
            </Array>
          </mxGeometry>
        </mxCell>
        <mxCell id="oXYsEidf6VKU98BRxcGU-12" value="" style="group" connectable="0" vertex="1" parent="1">
          <mxGeometry x="2810" y="930" width="100" height="100" as="geometry" />
        </mxCell>
        <mxCell id="oXYsEidf6VKU98BRxcGU-11" value="" style="ellipse;whiteSpace=wrap;html=1;aspect=fixed;" vertex="1" parent="oXYsEidf6VKU98BRxcGU-12">
          <mxGeometry width="100" height="100" as="geometry" />
        </mxCell>
        <mxCell id="m0ytVJ5oXfeXnBo-f1Hs-3" value="&lt;font style=&quot;font-size: 16px;&quot;&gt;Telefono&lt;/font&gt;" style="ellipse;whiteSpace=wrap;html=1;aspect=fixed;" vertex="1" parent="oXYsEidf6VKU98BRxcGU-12">
          <mxGeometry x="10" y="10" width="80" height="80" as="geometry" />
        </mxCell>
        <mxCell id="oXYsEidf6VKU98BRxcGU-13" value="" style="group" connectable="0" vertex="1" parent="1">
          <mxGeometry x="827" y="970" width="100" height="100" as="geometry" />
        </mxCell>
        <mxCell id="oXYsEidf6VKU98BRxcGU-14" value="" style="ellipse;whiteSpace=wrap;html=1;aspect=fixed;" vertex="1" parent="oXYsEidf6VKU98BRxcGU-13">
          <mxGeometry width="100" height="100" as="geometry" />
        </mxCell>
        <mxCell id="oXYsEidf6VKU98BRxcGU-15" value="&lt;font style=&quot;font-size: 16px;&quot;&gt;Telefono&lt;/font&gt;" style="ellipse;whiteSpace=wrap;html=1;aspect=fixed;" vertex="1" parent="oXYsEidf6VKU98BRxcGU-13">
          <mxGeometry x="10" y="10" width="80" height="80" as="geometry" />
        </mxCell>
        <mxCell id="2tq7A0gxsJtD3-_1VJJO-30" style="rounded=0;orthogonalLoop=1;jettySize=auto;html=1;entryX=0.25;entryY=1;entryDx=0;entryDy=0;endArrow=none;endFill=0;" edge="1" parent="1" source="2tq7A0gxsJtD3-_1VJJO-16" target="6jOyNxbrhBGqHSmDFOe4-36">
          <mxGeometry relative="1" as="geometry" />
        </mxCell>
        <mxCell id="2tq7A0gxsJtD3-_1VJJO-32" style="rounded=0;orthogonalLoop=1;jettySize=auto;html=1;exitX=0.5;exitY=1;exitDx=0;exitDy=0;entryX=0.5;entryY=0;entryDx=0;entryDy=0;endArrow=none;endFill=0;" edge="1" parent="1" source="2tq7A0gxsJtD3-_1VJJO-31" target="Cqu2y2vWlYIxZw1U-b0p-29">
          <mxGeometry relative="1" as="geometry" />
        </mxCell>
        <mxCell id="2tq7A0gxsJtD3-_1VJJO-31" value="&lt;font size=&quot;3&quot;&gt;Cantidad&lt;/font&gt;" style="ellipse;whiteSpace=wrap;html=1;aspect=fixed;" vertex="1" parent="1">
          <mxGeometry x="1775" y="180" width="80" height="80" as="geometry" />
        </mxCell>
        <mxCell id="2tq7A0gxsJtD3-_1VJJO-34" value="" style="rounded=0;orthogonalLoop=1;jettySize=auto;html=1;endArrow=none;endFill=0;" edge="1" parent="1" source="2tq7A0gxsJtD3-_1VJJO-33" target="Cqu2y2vWlYIxZw1U-b0p-29">
          <mxGeometry relative="1" as="geometry" />
        </mxCell>
        <mxCell id="2tq7A0gxsJtD3-_1VJJO-33" value="&lt;font size=&quot;3&quot;&gt;Precio&lt;/font&gt;" style="ellipse;whiteSpace=wrap;html=1;aspect=fixed;" vertex="1" parent="1">
          <mxGeometry x="1880" y="180" width="80" height="80" as="geometry" />
        </mxCell>
        <mxCell id="2tq7A0gxsJtD3-_1VJJO-35" value="(1, M)" style="text;html=1;align=center;verticalAlign=middle;resizable=0;points=[];autosize=1;strokeColor=none;fillColor=none;" vertex="1" parent="1">
          <mxGeometry x="1805" y="840" width="50" height="30" as="geometry" />
        </mxCell>
        <mxCell id="7LYNic5EFk3HzBCyirs2-2" style="rounded=0;orthogonalLoop=1;jettySize=auto;html=1;exitX=1;exitY=1;exitDx=0;exitDy=0;entryX=0;entryY=0;entryDx=0;entryDy=0;endArrow=none;endFill=0;" edge="1" parent="1" source="7LYNic5EFk3HzBCyirs2-1" target="Cqu2y2vWlYIxZw1U-b0p-48">
          <mxGeometry relative="1" as="geometry" />
        </mxCell>
        <mxCell id="7LYNic5EFk3HzBCyirs2-1" value="&lt;font style=&quot;font-size: 16px;&quot;&gt;Salario&lt;/font&gt;" style="ellipse;whiteSpace=wrap;html=1;aspect=fixed;" vertex="1" parent="1">
          <mxGeometry x="890" y="770" width="80" height="80" as="geometry" />
        </mxCell>
        <mxCell id="F2j9w5URhvaA3emcf3bD-1" style="edgeStyle=orthogonalEdgeStyle;rounded=0;orthogonalLoop=1;jettySize=auto;html=1;entryX=0.5;entryY=0;entryDx=0;entryDy=0;endArrow=none;endFill=0;" edge="1" parent="1" source="GKzgYfXd4jG0JuWnWflR-2" target="6jOyNxbrhBGqHSmDFOe4-17">
          <mxGeometry relative="1" as="geometry" />
        </mxCell>
        <mxCell id="GKzgYfXd4jG0JuWnWflR-2" value="&lt;span style=&quot;font-size: 16px;&quot;&gt;Volumen de compras mensual&lt;/span&gt;" style="ellipse;whiteSpace=wrap;html=1;aspect=fixed;" vertex="1" parent="1">
          <mxGeometry x="2636" y="680" width="110" height="110" as="geometry" />
        </mxCell>
        <mxCell id="pxCASzFqiO6Pbht4L9mE-1" value="&lt;font style=&quot;font-size: 14px;&quot;&gt;(1, N)&lt;/font&gt;" style="text;html=1;align=center;verticalAlign=middle;resizable=0;points=[];autosize=1;strokeColor=none;fillColor=none;" vertex="1" parent="1">
          <mxGeometry x="1800" y="410" width="60" height="30" as="geometry" />
        </mxCell>
        <mxCell id="pxCASzFqiO6Pbht4L9mE-7" style="rounded=0;orthogonalLoop=1;jettySize=auto;html=1;exitX=1;exitY=1;exitDx=0;exitDy=0;entryX=0;entryY=0;entryDx=0;entryDy=0;endArrow=none;endFill=0;" edge="1" parent="1" source="pxCASzFqiO6Pbht4L9mE-6" target="Cqu2y2vWlYIxZw1U-b0p-41">
          <mxGeometry relative="1" as="geometry" />
        </mxCell>
        <mxCell id="pxCASzFqiO6Pbht4L9mE-6" value="&lt;font style=&quot;font-size: 13px;&quot;&gt;Productividad&lt;/font&gt;" style="ellipse;whiteSpace=wrap;html=1;aspect=fixed;dashed=1;" vertex="1" parent="1">
          <mxGeometry x="970" y="520" width="80" height="80" as="geometry" />
        </mxCell>
      </root>
    </mxGraphModel>
  </diagram>
</mxfile>
